<?xml version="1.0" encoding="utf-8"?>
<!-- Generator: Adobe Illustrator 22.0.1, SVG Export Plug-In . SVG Version: 6.00 Build 0)  -->
<svg version="1.1" id="Layer_1" xmlns="http://www.w3.org/2000/svg" xmlns:xlink="http://www.w3.org/1999/xlink" x="0px" y="0px"
	 viewBox="0 0 119.9 140" style="enable-background:new 0 0 119.9 140;" xml:space="preserve">
<style type="text/css">
	.st0{fill:#A4A1C2;}
</style>
<g>
	<path class="st0" d="M114.3,93.7c-1.1,0-1.9,0.7-1.9,1.9s0.7,1.9,1.9,1.9s1.9-0.7,1.9-1.9S115.4,93.7,114.3,93.7z"/>
	<path class="st0" d="M114.3,101.2c-1.1,0-1.9,0.7-1.9,1.9v32c0,1.1,0.7,1.9,1.9,1.9s1.9-0.7,1.9-1.9v-32
		C116.2,101.9,115.4,101.2,114.3,101.2z"/>
	<path class="st0" d="M102,86.3H18.6c-0.4,0-1.1,0.4-1.5,0.7c-0.4,0.4-0.4,0.7-0.4,1.1V135c0,1.1,0.7,1.9,1.9,1.9s1.9-0.7,1.9-1.9
		V90h80.1V135c0,1.1,0.7,1.9,1.9,1.9c1.1,0,1.9-0.7,1.9-1.9V88.1c0-0.4,0-1.1-0.4-1.1C103.5,87,102.8,86.3,102,86.3L102,86.3z"/>
	<path class="st0" d="M97.2,47.9c0.4-0.4,0.4-0.7,0.4-1.5c0-0.4-0.4-1.1-0.7-1.1c-0.7-0.7-1.9-0.7-2.6,0c-0.7,0.7-0.7,1.9,0,2.6
		c0.4,0.4,0.7,0.4,1.1,0.4C96.4,48.3,96.8,48.3,97.2,47.9L97.2,47.9z"/>
	<path class="st0" d="M42.1,59.8c0,1.1,0.7,1.9,1.9,1.9s1.9-0.7,1.9-1.9c0-1.1-0.7-1.9-1.9-1.9C42.8,57.9,42.1,58.7,42.1,59.8z"/>
	<path class="st0" d="M33.5,57.9c-1.1,0-1.9,0.7-1.9,1.9c0,1.1,0.7,1.9,1.9,1.9h3c1.1,0,1.9-0.7,1.9-1.9c0-1.1-0.7-1.9-1.9-1.9H33.5
		z"/>
	<path class="st0" d="M114,60.6C113.6,60.6,113.6,60.6,114,60.6l-11.2-10.4c-0.7-0.7-1.9-0.7-2.6,0c-0.7,0.7-0.7,1.9,0,2.6l10.8,10
		c1.1,1.1,1.9,2.6,1.9,4.1c0,3-2.6,5.6-5.6,5.6H67.8c-3,0-5.6-2.6-5.6-5.6c0-3,2.6-5.6,5.6-5.6h19.8c1.1,0,1.9-0.7,1.9-1.9
		c0-1.1-0.7-1.9-1.9-1.9H67.8c-3,0-5.6,1.5-7.4,3.7c-1.5-2.2-4.5-3.7-7.4-3.7H51c-1.1,0-1.9,0.7-1.9,1.9c0,1.1,0.7,1.9,1.9,1.9h1.9
		c3,0,5.6,2.6,5.6,5.6c0,3-2.6,5.6-5.6,5.6H13.8c-3,0-5.6-2.6-5.6-5.6c0-1.5,0.7-3,1.9-4.1l30.5-28.3c3.4,7.4,11.2,12.7,19.8,12.7
		s16.4-5.2,19.8-12.7l8.9,8.2c0.4,0.4,0.7,0.4,1.1,0.4c0.4,0,1.1,0,1.5-0.7c0.4-0.4,0.4-0.7,0.4-1.5c0-0.4-0.4-1.1-0.7-1.1L82,31.1
		c0.4-1.9,0.7-3.7,0.7-5.6c0-11.9-9.7-22-22-22c-11.9,0-22,9.7-22,22c0,1.9,0.4,3.7,0.7,5.6L7.8,60.5c-2.2,1.6-3.4,4.2-3.4,6.7
		c0,1.9,0.7,4.1,1.9,5.6H6c-0.4,0-1.1,0.4-1.5,0.7v0.7V135c0,1.1,0.7,1.9,1.9,1.9s1.9-0.7,1.9-1.9V76.2h104.3v11.9
		c0,1.1,0.7,1.9,1.9,1.9c1.1,0,1.9-0.7,1.9-1.9V74.3c0-0.4-0.4-1.1-0.4-1.1c-0.4-0.4-0.7-0.4-1.1-0.4c1.1-1.5,1.9-3.4,1.9-5.6
		C116.5,64.6,115.4,62.4,114,60.6L114,60.6z M60.7,7.3c10,0,18.3,8.2,18.3,18.3s-8.2,18.3-18.3,18.3s-18.3-8.2-18.3-18.3
		C42.4,15.5,50.6,7.3,60.7,7.3z"/>
</g>
</svg>
