<?xml version="1.0" encoding="utf-8"?>
<!-- Generator: Adobe Illustrator 22.0.1, SVG Export Plug-In . SVG Version: 6.00 Build 0)  -->
<svg version="1.1" id="Layer_1" xmlns="http://www.w3.org/2000/svg" xmlns:xlink="http://www.w3.org/1999/xlink" x="0px" y="0px"
	 viewBox="0 0 156.8 140" style="enable-background:new 0 0 156.8 140;" xml:space="preserve">
<style type="text/css">
	.st0{fill:#A4A1C2;}
</style>
<path class="st0" d="M90.5,66.6l-3.7-3.7c-3.3-3.3-8.5-3.3-11.4,0c-1.6,1.6-2.4,3.7-2.4,5.7c0,2,0.8,4.1,2.4,5.7l3.7,3.7
	c-1.2,0.4-2.8,0.8-3.7,2c-1.6,1.6-2.4,3.7-2.4,5.7c0,2,0.8,4.1,2.4,5.7l26,26h-8.5h-0.4c-2,0-3.7,0.8-4.5,1.2
	c-2.4,1.6-4.1,4.5-4.1,7.3c0,2,0.8,4.1,2,5.3c1.6,1.6,3.3,2.4,5.3,2.4l28,3.7h0.4c1.2,0,2-0.8,2-1.6c0-0.4,0-1.2-0.4-1.6
	s-0.8-0.8-1.2-0.8l-28-3.7c-1.2,0-2-0.4-2.4-1.2c-0.8-0.8-0.8-1.6-0.8-2.4c0-1.6,0.8-3.3,2-4.1c0.4-0.4,1.2-0.4,2.4-0.4h15.8
	c0.4,0,1.2,0,1.6-0.4s0.4-0.8,0.4-1.6c0-1.2-0.8-2-2-2h-1.6L78.3,88.5c-0.8-0.8-1.2-1.6-1.2-2.8c0-1.2,0.4-2,1.2-2.8
	c1.6-1.6,4.1-1.6,5.7,0l26.8,26.8c0.4,0.4,0.8,0.4,1.6,0.4c0.4,0,1.2,0,1.6-0.4c0.4-0.4,0.4-0.8,0.4-1.6c0-0.8-0.4-1.2-0.4-1.6
	L78.7,71c-0.8-0.8-1.2-2-1.2-2.8c0-1.2,0.4-2,1.2-2.8c1.6-1.6,4.1-1.6,5.7,0l28.4,28.4c0.8,0.8,2,0.8,2.8,0c0.8-0.8,0.8-2,0-2.8
	L95.3,71.5c-0.8-0.8-1.2-1.6-1.2-2.8c0-1.2,0.4-2,1.2-2.8c1.6-1.6,4.1-1.6,5.7,0l26.8,26.8c0.4,0.4,0.8,0.4,1.6,0.4
	c0.4,0,1.2-0.4,1.6-0.4c0.8-0.8,0.8-2,0-2.8l-18.3-18.3c-0.8-0.8-1.2-1.6-1.2-2.8c0-1.2,0.4-2,1.2-2.8c1.6-1.6,4.1-1.6,5.7,0
	L143.6,91c4.9,4.9,7.3,10.9,7.3,17.9c0,6.9-2.4,13-7.3,17.9c-2.4,2.4-5.7,4.5-9.3,5.7c-1.2,0.4-1.6,1.6-1.2,2.4
	c0.4,0.8,1.2,1.2,2,1.2h0.8c4.1-1.6,7.7-3.7,10.5-6.9c5.7-5.7,8.5-13,8.5-20.7s-3.3-15-8.5-20.7l-25.1-25.6c-3.3-3.3-8.5-3.3-11.4,0
	c-1.2,1.2-1.6,2.4-2,3.7l-3.7-3.7c-1.6-1.6-3.7-2.4-5.7-2.4c-2,0-4.1,0.8-5.7,2.4C91.6,63.7,90.9,64.9,90.5,66.6L90.5,66.6z"/>
<path class="st0" d="M118.4,97c-0.8,0.8-0.8,2,0,2.8c0.4,0.4,0.8,0.4,1.6,0.4c0.4,0,1.2,0,1.2-0.4c0.4-0.4,0.8-0.8,0.8-1.6
	c0-0.4-0.4-1.2-0.8-1.6C120.5,96.2,119.3,96.2,118.4,97L118.4,97z"/>
<path class="st0" d="M127.8,138c1.2,0,2-1.2,2-2c0-1.2-0.8-2-2-2s-2,1.2-2,2C125.3,137.2,126.5,138,127.8,138
	C127.4,138,127.4,138,127.8,138z"/>
<path class="st0" d="M13.4,107.1h8.9v2.4c0,2.8,2,5.7,5.3,6.1l1.2,0.4c7.3,1.2,14.2,1.6,21.5,1.6s14.2-0.4,21.5-1.6l1.2-0.4
	c2.8-0.4,5.3-2.8,5.3-6.1v-4.5c0-1.2-0.8-2-2-2c-1.2,0-2,0.8-2,2v4.5c0,0.8-0.8,2-1.6,2L71,112c-13.8,2-28,2-41.8,0l-1.2-0.4
	c-0.8,0-1.6-0.8-1.6-2v-4.5c0-1.2-0.8-2-2-2H13.4c-3.3,0-6.1-2.8-6.1-6.1s2.8-6.1,6.1-6.1h11.4c1.2,0,2-0.8,2-2v-3.3
	c0-0.4,0.4-1.2,0.8-1.6c0.4-0.4,1.2-0.4,1.6-0.4C43,85.6,56.8,86,70.6,84c1.2,0,2-1.2,1.6-2.4c0-1.2-1.2-2-2.4-1.6
	c-13.4,2-26.8,2-40.2-0.4c-1.6-0.4-3.7,0.4-4.9,1.2c-1.6,1.6-2.4,3.7-2.4,5.3v1.2h-9c-5.7,0-10.1,4.5-10.1,10.1
	C3.2,103.1,7.7,107.1,13.4,107.1L13.4,107.1z"/>
<path class="st0" d="M78.7,45.9c1.2,0,2.4,0.8,2.4,2v3.3c0,0.4,0.4,1.2,0.4,1.2c0.4,0.4,0.8,0.8,1.6,0.8h11.4c1.2,0,2-0.8,2-2
	c0-1.2-0.8-2-2-2h-9.3v-1.2c0-3.3-2.8-6.1-6.1-6.1h-1.2c-10.1,1.6-20.3,2-30.4,1.2c-1.2,0-2,0.8-2,2c0,0.4,0,1.2,0.4,1.6
	c0.4,0.4,0.8,0.8,1.6,0.8C57.6,47.9,68.1,47.5,78.7,45.9L78.7,45.9z"/>
<path class="st0" d="M34.4,77.5h1.2c7.3,1.2,14.2,1.6,21.5,1.6c4.5,0,8.9-0.4,13.4-0.8c0.4,0,1.2-0.4,1.2-0.8
	c0.4-0.4,0.4-0.8,0.4-1.6c0-1.2-1.2-2-2-2c-11.4,1.2-22.7,0.8-33.7-1.2l-1.2-0.4c-0.8,0-1.6-0.8-1.6-2v-4.5c0-0.4,0-1.2-0.4-1.6
	c-0.4-0.4-0.8-0.4-1.6-0.4H20.2c-3.3,0-6.1-2.8-6.1-6.1c0-3.3,2.8-6.1,6.1-6.1h11.4c0.4,0,1.2-0.4,1.6-0.8c0.4-0.4,0.4-0.8,0.4-1.2
	v-1.6c0-0.4,0-0.8,0.4-1.2c0.4-0.8,0.4-2-0.8-2.8c-0.8-0.4-2,0-2.8,0.8c-0.4,0.8-0.8,2-0.8,2.8v1.2h-9.4c-5.7,0-10.1,4.5-10.1,10.1
	S14.5,69,20.2,69h9.3v2.4C29.1,74.7,31.2,77.1,34.4,77.5L34.4,77.5z"/>
<path class="st0" d="M38.9,46.3c0.8,0,2-0.8,2-1.6c0-0.4,0-1.2-0.4-1.6c-0.4-0.4-0.8-0.8-1.2-0.8c-1.2,0-2,0.8-2.4,1.6
	c0,0.4,0,1.2,0.4,1.6C37.7,45.9,38.1,46.3,38.9,46.3L38.9,46.3z"/>
<path class="st0" d="M13.4,30.9h8.9v2.4c0,2.8,2,5.7,5.3,6.1l1.2,0.4c7.3,1.2,14.2,1.6,21.5,1.6s14.2-0.4,21.5-1.6l1.2-0.4
	c2.8-0.4,5.3-2.8,5.3-6.1v-2.4h9.3c5.7,0,10.1-4.5,10.1-10.1s-4.5-10.1-10.1-10.1h-9.4V9.4c0-1.6-0.8-3.7-2-4.5
	C75,3.7,73,3.3,71.4,3.7c-13.8,2-28,2-41.8,0c-1.6-0.4-3.7,0.4-4.9,1.2c-1.2,1.2-2,2.8-2,4.5v1.2h-9.3C7.7,10.6,3.2,15,3.2,20.7
	S7.7,30.9,13.4,30.9L13.4,30.9z M13.4,14.6h11.4c1.2,0,2-0.8,2-2V9.4c0-0.4,0.4-1.2,0.8-1.6s1.2-0.4,1.6-0.4c14.2,2.4,28.8,2.4,43,0
	c0.4,0,1.2,0,1.6,0.4c0.4,0.4,0.8,0.8,0.8,1.6v3.3c0,1.2,0.8,2,2,2H88c3.3,0,6.1,2.8,6.1,6.1s-2.8,6.1-6.1,6.1H76.6
	c-1.2,0-2,0.8-2,2v4.5c0,0.8-0.8,2-1.6,2h-2c-13.8,2-28,2-41.8,0l-1.2-0.4c-0.8,0-1.6-0.8-1.6-2v-4.5c0-1.2-0.8-2-2-2H13.3
	c-3.2,0-6.1-2.8-6.1-6.1C7.3,17.1,9.7,14.6,13.4,14.6L13.4,14.6z"/>
<path class="st0" d="M66.5,30.9c1.2,0,2-0.8,2-2c0-1.2-0.8-2-2-2c-1.2,0-2,0.8-2,2C64.5,30.1,65.3,30.9,66.5,30.9z"/>
<path class="st0" d="M64.5,20.7c0,1.2,0.8,2,2,2c1.2,0,2-0.8,2-2v-1.6v-1.6v-3.7v-1.2v-0.4c0-0.4,0-0.4-0.4-1.2
	c-0.8-0.8-2-1.2-2.8-0.4c-0.8,0.4-1.2,1.6-0.8,2V17C64.5,18.7,64.5,19.9,64.5,20.7L64.5,20.7z"/>
<path class="st0" d="M68.1,49.9c-0.8-0.8-2-1.2-2.8-0.8c-0.8,0.4-1.2,1.2-0.8,2.4V56v2.8c0,1.2,0.8,2,2,2s2-0.8,2-2v-1.6v-1.6V52
	v-1.2v-0.4C68.5,51.2,68.5,50.7,68.1,49.9L68.1,49.9z"/>
<path class="st0" d="M66.5,69.4c1.2,0,2-0.8,2-2c0-1.2-0.8-2-2-2c-1.2,0-2,0.8-2,2S65.3,69.4,66.5,69.4z"/>
<path class="st0" d="M66.5,103.9c-1.2,0-2,0.8-2,2c0,0.4,0,1.2,0.4,1.2c0.4,0.4,0.8,0.8,1.2,0.8c1.2,0,2-0.8,2-2
	C68.5,104.7,67.7,103.9,66.5,103.9L66.5,103.9z"/>
<path class="st0" d="M68.5,96.2v-1.6v-3.7v-1.2v-0.4c0-0.4,0-0.4-0.4-1.2c-0.8-0.8-2-1.2-2.8-0.8c-0.8,0.4-1.2,1.6-0.8,2.4v4.5V97
	c0,1.2,0.8,2,2,2s2-0.8,2-2C68.5,97,68.5,96.6,68.5,96.2L68.5,96.2z"/>
</svg>
