<?xml version="1.0" encoding="utf-8"?>
<!-- Generator: Adobe Illustrator 22.0.1, SVG Export Plug-In . SVG Version: 6.00 Build 0)  -->
<svg version="1.1" id="Layer_1" xmlns="http://www.w3.org/2000/svg" xmlns:xlink="http://www.w3.org/1999/xlink" x="0px" y="0px"
	 viewBox="0 0 175.7 140" style="enable-background:new 0 0 175.7 140;" xml:space="preserve">
<style type="text/css">
	.st0{fill:#A4A1C2;}
</style>
<path class="st0" d="M171.1,80.3h-6.1c-1.3,0-2.2,0.9-2.2,2.2s0.9,2.2,2.2,2.2h3.5c-0.4,11.3-8.7,23.1-22.2,32.2
	c-15.2,10.4-35.2,16.1-56.1,16.1h-6.1c-1.3,0-2.2,0.9-2.2,2.2c0,0.4,0,1.3,0.4,1.7c0.4,0.4,0.9,0.9,1.3,0.9h6.5
	c21.7,0,42.6-6.1,58.3-16.5s24.3-23.9,24.8-37.8c0-0.4-0.4-1.3-0.4-1.7C172.4,80.7,171.6,80.3,171.1,80.3L171.1,80.3z"/>
<path class="st0" d="M54.2,84.6c1.3,0,2.2-0.9,2.2-2.2c0-1.3-0.9-2.2-2.2-2.2c-1.3,0-2.2,0.9-2.2,2.2C52.1,83.8,52.9,84.6,54.2,84.6
	z"/>
<path class="st0" d="M105.1,82.5c0-1.3-0.9-2.2-2.2-2.2h-40c-1.3,0-2.2,0.9-2.2,2.2s0.9,2.2,2.2,2.2h40
	C104.2,84.6,105.1,83.8,105.1,82.5L105.1,82.5z"/>
<path class="st0" d="M75.5,131.6c-1.3,0-2.2,0.9-2.2,1.7c0,1.3,0.9,2.2,1.7,2.6h0.4c1.3,0,2.2-0.9,2.2-1.7
	C77.7,132.9,76.8,131.6,75.5,131.6z"/>
<path class="st0" d="M66.4,134.2h0.4c0.9,0,1.7-0.9,2.2-1.7c0.4-1.3-0.4-2.2-1.7-2.6c-15.2-3-29.1-9.5-39.1-18.2
	c-10-8.3-15.6-17.8-16.5-27.4h34c1.3,0,2.2-0.9,2.2-2.2s-0.9-2.2-2.2-2.2H9.4c-0.4,0-1.3,0-1.3,0.4c-0.9,1.3-0.9,1.7-0.9,2.2
	C7.3,105.1,32,126.8,66.4,134.2L66.4,134.2z"/>
<path class="st0" d="M84.7,92.9c0,1.3,0.9,2.2,2.2,2.2c1.3,0,2.2-0.9,2.2-2.2c0-1.3-0.9-2.2-2.2-2.2C85.5,90.7,84.7,92,84.7,92.9z"
	/>
<path class="st0" d="M80.3,92.9c0-1.3-0.9-2.2-2.2-2.2H34.7c-1.3,0-2.2,0.9-2.2,2.2s0.9,2.2,2.2,2.2h43.5
	C79,95.1,80.3,94.2,80.3,92.9z"/>
<path class="st0" d="M77.2,60.3c0.9-0.9,0.9-2.2,0-3s-2.2-0.9-3,0s-0.9,2.2,0,3c0.4,0.4,0.9,0.9,1.7,0.9
	C76.4,61.2,76.8,60.7,77.2,60.3L77.2,60.3z"/>
<path class="st0" d="M90.3,75.5c0.4,0,1.3,0,1.3-0.9c0.4-0.4,0.9-0.9,0.9-1.3c0-0.5,0-1.3-0.9-1.7l-8.3-8.3c-0.9-0.9-2.2-0.9-3,0
	s-0.9,2.2,0,3l8.3,8.3C89,75.1,89.9,75.5,90.3,75.5L90.3,75.5z"/>
<path class="st0" d="M34.2,17.3c0.4-0.4,0.4-0.9,0.4-1.3s-0.4-1.3-0.4-1.3c-0.9-0.9-2.2-0.9-3,0c-0.4,0.4-0.4,0.9-0.4,1.3
	s0,1.3,0.4,1.3c0.4,0.4,0.9,0.9,1.7,0.9C33.3,17.7,33.8,17.7,34.2,17.3L34.2,17.3z"/>
<path class="st0" d="M25.5,40.8c-0.4,0.4-0.4,0.9-0.4,1.3c0,0.4,0,1.3,0.4,1.7l30.9,30.9c0.4,0.4,0.9,0.9,1.3,0.9s1.3,0,1.7-0.9
	c0.4-0.4,0.4-0.9,0.4-1.3c0-0.5,0-1.3-0.4-1.7L28.6,40.8C27.7,39.9,26.4,39.9,25.5,40.8L25.5,40.8z"/>
<path class="st0" d="M12.9,31.6c0.4,0.4,0.9,0.4,1.7,0.4c0.4,0,1.3,0,1.7-0.4c0.4-0.4,0.4-0.9,0.4-1.7s-0.4-1.3-0.4-1.3l-4.8-4.8
	C9.9,22,9,19.4,9,17.3c0-2.6,0.9-4.8,2.6-6.5c3.5-3.5,9.5-3.5,13,0l0.4,0.4c0.9,0.9,2.2,0.9,3,0s0.9-2.2,0-3l-0.4-0.5
	c-5.2-5.2-14.4-5.2-19.6,0c-2.6,2.6-3.9,6.1-3.9,9.6s1.3,6.9,3.9,9.5L12.9,31.6z"/>
<path class="st0" d="M19.5,34.7c-0.9,0.9-0.9,2.2,0,3c0.4,0.4,0.9,0.4,1.7,0.4c0.4,0,1.3,0,1.3-0.4c0.4-0.4,0.9-0.9,0.9-1.7
	c0-0.4-0.4-1.3-0.9-1.3C21.6,33.8,20.3,33.8,19.5,34.7L19.5,34.7z"/>
<path class="st0" d="M37.7,20.3c-0.9,0.9-0.9,2.2,0,3l30.9,30.9c0.4,0.4,0.9,0.9,1.7,0.9c0.4,0,1.3-0.4,1.7-0.9
	c0.4-0.4,0.4-0.9,0.4-1.3c0-0.4-0.4-1.3-0.4-1.7L41.2,20.3C39.9,19.4,38.1,19.4,37.7,20.3L37.7,20.3z"/>
<path class="st0" d="M133.3,61.2c0.9,0,1.3-0.4,1.7-0.9c0.9-0.9,0.4-2.2-0.4-3c-1.3-0.4-2.6-0.4-3,0.9c-0.4,0.4-0.4,0.9-0.4,1.7
	c0,0.4,0.4,1.3,0.9,1.3L133.3,61.2L133.3,61.2z"/>
<path class="st0" d="M152.9,65.1v-0.9c0-4.8-3.9-8.3-8.7-8.3c-1.7,0-3.5,0.4-4.8,1.7c-0.9,0.9-1.3,2.2-0.4,3s2.2,1.3,3,0.4
	c0.9-0.4,1.3-0.9,2.2-0.9c2.2,0,3.9,1.7,4.3,3.9v0.4v0.4v0.9c0,3.5,2.2,6.5,5.2,7.8c1.7,0.9,2.2,2.2,2.6,3.9c0,1.7-0.9,3-2.6,3.9
	c-3,1.3-5.2,4.3-5.2,7.8v0.9v0.4c0,2.2-1.7,3.9-4.3,3.9c-0.9,0-1.7-0.4-2.2-0.9c-3-2.2-7.4-2.2-10,0c-0.9,0.4-1.3,0.9-2.2,0.9
	c-2.2,0-3.9-1.7-4.3-3.9v-0.4v-0.9c0-3.5-2.2-6.5-5.2-7.8c-1.3-0.4-2.6-2.2-2.6-3.5c0-1.7,0.9-3,2.6-3.9c3-1.3,5.2-4.3,5.2-7.8v-0.9
	v-0.4c0-1.3,0.4-2.2,1.3-3c0.4-0.4,0.4-0.9,0.4-1.3s0-1.3-0.4-1.7c-0.9-0.9-2.2-0.9-3,0c-1.7,1.7-2.6,3.9-2.6,6.1v0.9v0.4
	c0,1.7-0.9,3-2.6,3.9c-3,1.3-5.2,4.3-4.8,7.8c0,3.5,1.7,6.5,4.8,7.8c1.3,0.9,2.6,2.2,2.6,3.9v0.4v0.9c0,4.8,3.9,8.3,8.7,8.3
	c1.7,0,3.5-0.4,4.8-1.7c1.3-0.9,3.5-0.9,4.8,0c1.3,1.3,3,1.7,4.8,1.7c4.8,0,8.3-3.9,8.7-8.3v-0.9v-0.4c0-1.7,0.9-3,2.6-3.9
	c3-1.3,5.2-4.3,4.8-7.8c0-3.5-1.7-6.5-4.8-7.8c-1.3-0.9-2.6-2.2-2.6-3.9C152.9,65.5,152.9,65.5,152.9,65.1L152.9,65.1z"/>
<path class="st0" d="M126.8,77.2c0,5.7,4.3,10,10,10c5.7,0,10-4.3,10-10c0-5.7-4.3-10-10-10C131.6,67.3,126.8,71.6,126.8,77.2z
	 M137.2,71.6c3,0,5.7,2.6,5.7,5.7c0,3-2.6,5.7-5.7,5.7c-3.1,0-5.7-2.6-5.7-5.7C131.6,74.2,133.8,71.6,137.2,71.6z"/>
</svg>
