<?xml version="1.0" encoding="utf-8"?>
<!-- Generator: Adobe Illustrator 22.0.1, SVG Export Plug-In . SVG Version: 6.00 Build 0)  -->
<svg version="1.1" id="Layer_1" xmlns="http://www.w3.org/2000/svg" xmlns:xlink="http://www.w3.org/1999/xlink" x="0px" y="0px"
	 viewBox="0 0 136.8 140" style="enable-background:new 0 0 136.8 140;" xml:space="preserve">
<style type="text/css">
	.st0{fill:#A4A1C2;}
</style>
<path class="st0" d="M23,76.2L5.6,40c-0.3-0.6-1.3-1-2.3-0.6c-0.3,0.3-0.6,0.6-1,1v1.3l17.5,36.2c2,3.9,4.3,7.6,7.6,10.5
	c0.3,0.3,0.6,0.3,1,0.3c0.3,0,1,0,1.3-0.3c0.3-0.3,0.3-0.6,0.3-1.3c0-0.3,0-1-0.3-1.3C27.3,82.8,25,79.9,23,76.2L23,76.2z"/>
<path class="st0" d="M122.8,72.9L74,64.4c-1-0.3-1.6,0.3-2,1.3c0,1,0.3,1.6,1.3,2l48.7,8.6c4.6,1,8.2,4.9,8.2,9.6
	c0,3-1.3,5.9-3.6,7.6c-0.6,0.6-1,1.6-0.3,2.3c0.3,0.3,0.6,0.6,1.3,0.6c0.3,0,0.6,0,1-0.3c3.3-2.6,4.9-6.3,4.9-10.2
	C133.7,79.5,129,74.2,122.8,72.9L122.8,72.9z"/>
<path class="st0" d="M35.2,90.1l-0.3-0.3c-0.6-0.6-1.6-0.3-2.3,0.3c-0.3,0.6-0.3,1.6,0.3,2.3h0.3h0.6c0.6,0,1-0.3,1.3-0.6
	C35.9,91.4,35.5,90.4,35.2,90.1L35.2,90.1z"/>
<path class="st0" d="M66.2,66c0.3,0.3,0.6,0.6,1,0.6h0.3c0.6,0,1.3-0.6,1.6-1.3c0-0.3,0-1-0.3-1.3c-0.3-0.3-0.6-0.6-1-0.6
	c-1-0.3-1.6,0.3-2,1.3C65.8,65,65.8,65.7,66.2,66L66.2,66z"/>
<path class="st0" d="M60.5,65.4h0.3c0.6,0,1.3-0.6,1.6-1.3c0-0.3,0-1-0.3-1.3c-0.3-0.3-0.6-0.6-1-0.6c-9.9-2.6-18.1-9.2-22.4-18.4
	l-19-39.9c-0.3-0.6-1.3-1-2.3-0.6c-0.3,0-0.6,0.3-1,1v1l19.4,40.2C40.8,55.2,49.7,62.7,60.5,65.4L60.5,65.4z"/>
<path class="st0" d="M121.5,95.6c-0.3,0-1,0.3-1,0.6c-0.3,0.3-0.3,0.6-0.3,1.3c0,1,0.6,1.6,1.6,1.6c0.3,0,1-0.3,1-0.6
	c0.3-0.3,0.3-0.6,0.3-1.3C123.1,96.3,122.5,95.6,121.5,95.6z"/>
<path class="st0" d="M114.9,95.6H54.3c-4.9,0-9.6-1-13.8-3c-0.6-0.3-1.6,0-2.3,1c-0.3,1,0,1.6,1,2.3c4.9,2.3,9.9,3.3,15.1,3.3h60.6
	c1,0,1.6-0.6,1.6-1.6C116.5,96.3,115.9,95.6,114.9,95.6L114.9,95.6z"/>
<path class="st0" d="M55.3,90.1c0,1,0.6,1.6,1.6,1.6c1,0,1.6-0.6,1.6-1.6s-0.6-1.6-1.6-1.6C56,88.4,55.3,89.1,55.3,90.1z"/>
<path class="st0" d="M85.6,88.4h-22c-1,0-1.6,0.6-1.6,1.6s0.6,1.6,1.6,1.6h22c4.6,0,8.2-3.6,8.2-8.2c0-3.9-3-7.2-6.9-8.2l-33.6-5.9
	c-1-0.3-1.6,0.3-2,1.3c0,1,0.3,1.6,1.3,2h0.6l32.9,5.9c2.3,0.3,3.9,2.6,3.9,4.9C90.5,86.1,88.2,88.4,85.6,88.4L85.6,88.4z"/>
<path class="st0" d="M50.3,88.4h-3c-1,0-1.6,0.6-1.6,1.6s0.6,1.6,1.6,1.6h3c1,0,1.6-0.6,1.6-1.6C52,89.1,51,88.4,50.3,88.4z"/>
<path class="st0" d="M86.9,107.5c0.3-0.3,0.6-1,1-1.3c0.4-0.3,0.3-1,0.3-1.3s-0.3-0.6-0.6-1c-0.6-0.3-1.6-0.3-2.3,0.3
	c-0.3,0.3-0.3,0.6-0.6,1c-0.3,0.3-0.3,0.6-0.3,1.3c0,0.3,0.3,1,0.6,1c0.3,0.3,0.6,0.3,1,0.3C86.2,108.2,86.6,107.8,86.9,107.5
	L86.9,107.5z"/>
<path class="st0" d="M80.3,111.8h0.6c1-0.3,1.3-1.3,1-2.3c-0.3-1-1.3-1.3-2-1c-0.3,0-0.6,0.3-1,1c-0.3,0.3-0.3,1,0,1.3
	C79,111.1,79.7,111.8,80.3,111.8L80.3,111.8z"/>
<path class="st0" d="M69.8,113.8c1.3,0,3,0,4.3-0.3c1,0,1.6-1,1.3-2c0-1-1-1.6-2-1.3c-1.3,0.3-2.6,0.3-3.9,0.3
	c-6.9,0-13.2-2.6-15.5-5.9c-0.3-0.6-1.6-1-2.3-0.3c-0.6,0.6-1,1.6-0.3,2.3C54.6,110.8,61.5,113.4,69.8,113.8L69.8,113.8z"/>
<path class="st0" d="M48.4,114.1c-0.6-0.6-1.6-1-2.3-0.3c-0.6,0.6-1,1.6-0.3,2.3c3.9,5.9,13.5,9.9,24,9.9s20.1-3.9,24-9.9
	c0.6-0.6,0.3-1.6-0.3-2.3c-0.6-0.6-1.6-0.3-2.3,0.3c-3.3,4.9-11.8,8.2-21.1,8.2C60.9,122.3,52,119,48.4,114.1L48.4,114.1z"/>
<path class="st0" d="M52.7,131.2c-4.3-2-7.9-4.3-9.6-7.2c-0.3-0.6-1.6-1-2.3-0.3c-0.6,0.6-1,1.6-0.3,2.3c2.3,3.3,6.3,6.3,11.2,8.6
	h0.6c0.6,0,1.3-0.3,1.6-1C53.6,132.5,53.3,131.5,52.7,131.2L52.7,131.2z"/>
<path class="st0" d="M58.6,133.2c-1-0.3-1.6,0.3-2,1.3c-0.3,1,0.3,1.6,1.3,2h0.3c0.6,0,1.3-0.6,1.6-1.3
	C59.9,134.2,59.3,133.5,58.6,133.2L58.6,133.2z"/>
<path class="st0" d="M98.8,123.6c-0.6-0.3-1.6-0.3-2.3,0.3c-0.6,1-1.3,1.6-2,2.6c-4.9,4.9-14.5,7.9-24.7,7.9c-1.6,0-3.3,0-4.9-0.3
	c-1,0-1.6,0.6-2,1.6c0,0.3,0,1,0.3,1.3c0.3,0.3,0.6,0.6,1,0.6h0.3c1.6,0.3,3.6,0.3,5.3,0.3c10.9,0,21.1-3.3,27-8.9c1-1,2-2,2.6-3
	C99.7,125,99.4,124,98.8,123.6L98.8,123.6z"/>
</svg>
