<?xml version="1.0" encoding="utf-8"?>
<!-- Generator: Adobe Illustrator 22.0.1, SVG Export Plug-In . SVG Version: 6.00 Build 0)  -->
<svg version="1.1" id="Layer_1" xmlns="http://www.w3.org/2000/svg" xmlns:xlink="http://www.w3.org/1999/xlink" x="0px" y="0px"
	 viewBox="0 0 175.3 140" style="enable-background:new 0 0 175.3 140;" xml:space="preserve">
<style type="text/css">
	.st0{fill:#A4A1C2;}
</style>
<path class="st0" d="M45.1,136.8c0,1.2,0.8,2,2,2c1.2,0,2-0.8,2-2V94.1c2,0,3.6,0,5.6,0.4c1.2,0,2-0.8,2-2s-0.8-2-2-2
	c-2,0-4-0.4-5.9-0.4v-19c2.8-0.8,5.2-3.6,5.2-6.7l2.3-52.3c0-2-0.8-4-2-5.6c-0.8-1.6-2.8-2.4-4.7-2.4h-5.2c-2,0-4,0.8-5.2,2.4
	c-1.6,1.6-2,3.6-2,5.6l2.4,52.3c0,3.2,2.4,5.9,5.2,6.7v19.4c-12.7,0.4-26.1,4-40.4,10.7c-1.2,0.4-1.6,1.6-0.8,2.8
	c0.4,0.8,1.2,1.2,2,1.2h0.8c13.5-6.3,26.9-9.9,39.2-10.7v42.4H45.1z M43.6,64l-2.4-52.3c0-0.8,0.4-2,0.8-2.4
	c0.8-0.8,1.6-1.2,2.4-1.2h5.2c0.8,0,1.6,0.4,2.4,1.2c0.8,0.8,0.8,1.6,0.8,2.4L50.3,64c0,1.6-1.6,3.2-3.2,3.2
	C45.5,67.2,43.9,65.9,43.6,64L43.6,64z"/>
<path class="st0" d="M47.1,37.1c1.2,0,2-0.8,2-2V11.3c0-1.2-0.8-2-2-2c-1.2,0-2,0.8-2,2v23.8C45.1,36.2,45.9,37.1,47.1,37.1z"/>
<path class="st0" d="M49.1,43c0-1.2-0.8-2-2-2s-2,0.8-2,2s0.8,2,2,2S49.1,44.2,49.1,43z"/>
<path class="st0" d="M134.3,31.5h-3.2c-1.6,0-2.8,0.8-4,1.6c-1.2,1.2-1.6,2.4-1.6,4l1.6,32.5c0,2,1.6,4,3.2,4.7v40c0,1.2,0.8,2,2,2
	c1.2,0,2-0.8,2-2V73.9c2-0.8,3.2-2.4,3.2-4.7l1.6-32.5c0-1.6-0.4-2.8-1.6-4C137,32.3,135.8,31.5,134.3,31.5L134.3,31.5z M133.8,69.1
	c0,0.8-0.8,1.2-1.2,1.2c-0.4,0-1.2-0.4-1.2-1.2l-1.6-32.5c0-0.4,0-0.8,0.4-0.8c0.4,0,0.4-0.4,0.8-0.4h3.2c0.4,0,0.8,0,0.8,0.4
	c0,0.4,0.4,0.8,0.4,0.8L133.8,69.1z"/>
<path class="st0" d="M70.5,97.2c0.8,0,1.6-0.4,2-1.2v-1.6l-1.2-1.2c-1.2-0.4-2,0.4-2.4,1.2c-0.4,1.2,0.4,2,1.2,2.4
	C70.1,97.2,70.1,97.2,70.5,97.2L70.5,97.2z"/>
<path class="st0" d="M168.3,92.5c-7.1,6.3-14.3,11.1-21,14.6l-1.2,1.2v1.6c0.4,0.8,1.2,1.2,2,1.2h0.8c7.1-3.6,14.3-8.7,21.8-15.1
	c0.4-0.4,0.8-0.8,0.8-1.2c0-0.4,0-1.2-0.4-1.6C170.3,92.1,169.1,91.7,168.3,92.5L168.3,92.5z"/>
<path class="st0" d="M140.2,109.9c-0.8,0.4-1.2,0.8-1.2,1.2c0,0.4-0.4,1.2,0,1.6c0.4,0.8,1.2,1.2,2,1.2h0.8c0.8-0.4,1.6-1.6,1.2-2.4
	C142.2,110.3,141.4,109.9,140.2,109.9L140.2,109.9z"/>
<path class="st0" d="M119.6,113.5c-11.1-0.4-18.6-4.7-26.9-9.9c-4.3-2.4-8.7-5.2-13.9-7.1c-1.2-0.4-2,0-2.8,1.2
	c-0.4,0.8,0,2,0.8,2.4c4.7,2,9.1,4.7,13.5,7.1c8.7,5.2,17,9.9,28.9,10.7h3.2h3.2c1.2,0,2-1.2,2-2c0-1.2-1.2-2-2-2
	C123.2,113.5,121.2,113.5,119.6,113.5L119.6,113.5z"/>
</svg>
