<?xml version="1.0" encoding="utf-8"?>
<!-- Generator: Adobe Illustrator 22.0.1, SVG Export Plug-In . SVG Version: 6.00 Build 0)  -->
<svg version="1.1" id="Layer_1" xmlns="http://www.w3.org/2000/svg" xmlns:xlink="http://www.w3.org/1999/xlink" x="0px" y="0px"
	 viewBox="0 0 300 60" style="enable-background:new 0 0 300 60;" xml:space="preserve">
<style type="text/css">
	.st0{fill:#8AAA79;}
	.st1{fill:#605AA1;}
	.st2{fill:#DDDCEB;}
	.st3{fill:#A4A1C2;}
	.st4{fill:#2C2759;}
	.st5{fill:#4B6B3D;}
</style>
<path class="st0" d="M93.7,47.3c-5-5-11.4-8.1-18.3-9.1c-0.5-0.1-1,0.3-1,0.8c-0.1,0.5,0.3,1,0.8,1c6.3,0.9,12,3.7,16.6,8
	C80.1,58.8,62,59.1,50,48.8C67,47.5,80.7,33.3,80.7,16c0-0.2-0.1-0.5-0.3-0.6c-0.2-0.2-0.4-0.3-0.6-0.3l0,0
	c-6.9,0-13.5,2.2-19.1,6.2c-0.4,0.3-0.5,0.9-0.2,1.3s0.9,0.5,1.3,0.2c5-3.6,10.9-5.7,17.1-5.9c-0.6,15.9-13.2,28.9-29,30.1
	c11.2-13,10.8-32.6-1.3-44.9c-0.3-0.3-1-0.3-1.3,0c-5,5-8.1,11.4-9.1,18.3c-0.1,0.5,0.3,1,0.8,1c0.5,0.1,1-0.3,1-0.8
	c0.9-6.3,3.7-12,8-16.6c10.8,11.6,11,29.6,0.6,41.6c-1.2-16.9-15.3-30.5-32.4-30.7c-0.2,0-0.5,0.1-0.6,0.3c-0.2,0.2-0.3,0.4-0.3,0.6
	v3.1V19c0.6,5.5,2.6,10.9,5.7,15.4c0.3,0.4,0.9,0.5,1.3,0.2s0.5-0.9,0.2-1.3c-3-4.3-4.9-9.3-5.4-14.5v-2.1
	c15.7,0.6,28.5,13.2,29.7,28.9C34,34.6,14.5,35,2.3,47C2.1,47.4,2,47.6,2,47.8s0.1,0.5,0.3,0.6l2.2,2.2c0,0,0,0,0.1,0.1
	c5.8,4.7,13.2,7.4,20.7,7.4c0,0,0,0,0.1,0c5.9,0,11.7-1.6,16.7-4.6c0.4-0.3,0.6-0.8,0.3-1.2C42,51.8,41.5,51.7,41,52
	c-4.8,2.8-10.2,4.3-15.8,4.3l0,0h-0.1l0,0c-7.1,0-14-2.5-19.5-6.9l-1.5-1.5c12.2-11.2,31.2-10.9,43,0.7l0,0
	c6.4,6.4,14.9,9.5,23.3,9.5s16.9-3.2,23.3-9.5c0.2-0.2,0.3-0.4,0.3-0.6C94,47.7,93.9,47.5,93.7,47.3z"/>
<g>
	<path class="st1" d="M136.1,18.8v34.4h-4.6V38.1h-18v15.1h-4.6V18.8h4.6v14.9h18V18.8H136.1z"/>
	<path class="st1" d="M143.2,43.1c0-2,0.5-3.7,1.4-5.3s2.2-2.8,3.9-3.8c1.7-0.9,3.6-1.4,5.7-1.4c2.1,0,4,0.5,5.6,1.4
		s2.9,2.2,3.8,3.8s1.4,3.4,1.4,5.3s-0.5,3.7-1.4,5.3s-2.2,2.8-3.8,3.8c-1.6,0.9-3.5,1.4-5.7,1.4c-2.1,0-4-0.4-5.6-1.3
		c-1.6-0.9-2.9-2.1-3.9-3.7S143.2,45.3,143.2,43.1z M147.6,43.2c0,1.3,0.3,2.4,0.9,3.5s1.3,1.8,2.3,2.5c1,0.6,2,0.9,3.2,0.9
		s2.3-0.3,3.3-0.9c1-0.6,1.7-1.4,2.3-2.5c0.6-1,0.8-2.2,0.8-3.5s-0.3-2.4-0.8-3.5c-0.6-1-1.3-1.9-2.3-2.5s-2-0.9-3.3-0.9
		c-1.2,0-2.3,0.3-3.3,1c-1,0.6-1.7,1.5-2.3,2.5C147.9,40.8,147.6,42,147.6,43.2z"/>
	<path class="st1" d="M170.8,16.3h4.5v36.8h-4.5V16.3z"/>
	<path class="st1" d="M182.6,26.3c0-0.7,0.3-1.3,0.8-1.8c0.6-0.5,1.2-0.7,1.8-0.7c0.7,0,1.3,0.2,1.8,0.7s0.8,1.1,0.8,1.8
		c0,0.7-0.3,1.3-0.8,1.8s-1.1,0.7-1.8,0.7s-1.3-0.2-1.8-0.7C182.9,27.7,182.6,27.1,182.6,26.3z M182.9,33.5h4.5v19.7h-4.5V33.5z"/>
</g>
<g>
	<path class="st0" d="M220.9,51c-0.7,0.4-1.6,0.9-2.5,1.3c-1,0.4-2,0.7-3.1,1c-1.1,0.2-2.4,0.4-3.7,0.4c-2.6,0-4.9-0.5-7-1.4
		s-3.9-2.1-5.4-3.7c-1.5-1.6-2.6-3.4-3.5-5.4c-0.8-2-1.2-4.2-1.2-6.5c0-2.5,0.4-4.8,1.3-6.9c0.9-2.1,2.1-4,3.6-5.6
		c1.6-1.6,3.4-2.8,5.4-3.7c2.1-0.9,4.3-1.3,6.7-1.3c1.8,0,3.4,0.2,5,0.7s3,1.1,4.2,1.9l-1,2.1c-1.1-0.7-2.4-1.3-3.8-1.8
		s-2.9-0.7-4.4-0.7c-2,0-3.9,0.4-5.7,1.2c-1.8,0.8-3.3,1.9-4.7,3.2c-1.3,1.4-2.4,3-3.2,4.8s-1.1,3.8-1.1,6c0,2,0.3,4,1,5.8
		s1.7,3.4,3,4.8s2.8,2.4,4.6,3.2s3.8,1.2,6,1.2c1.7,0,3.2-0.2,4.5-0.7s2.6-1,3.7-1.7L220.9,51z"/>
	<path class="st0" d="M228.3,17h2.2v36.2h-2.2V17z"/>
	<path class="st0" d="M238.6,27.7c0-0.4,0.2-0.8,0.5-1.1c0.3-0.3,0.7-0.5,1.1-0.5c0.4,0,0.8,0.2,1.1,0.5s0.5,0.7,0.5,1.1
		c0,0.5-0.2,0.9-0.5,1.2c-0.3,0.3-0.7,0.5-1.1,0.5c-0.4,0-0.8-0.2-1.1-0.5C238.8,28.5,238.6,28.2,238.6,27.7z M239.1,34.6h2.2v18.6
		h-2.2V34.6z"/>
	<path class="st0" d="M251.7,34.6l0.2,5.9l-0.3-1.1c0.5-1.6,1.6-2.9,3.1-3.8c1.5-0.9,3.2-1.4,5-1.4c1.7,0,3.2,0.5,4.2,1.5
		s1.6,2.4,1.7,4v13.6h-2.3V40.2c0-1.2-0.4-2.2-1.1-3S260.4,36,259,36c-1.2,0-2.4,0.3-3.5,0.9c-1.1,0.6-1.9,1.4-2.6,2.5
		c-0.7,1.1-1,2.3-1,3.8v10h-2.2V34.6H251.7z"/>
	<path class="st0" d="M273.7,27.7c0-0.4,0.2-0.8,0.5-1.1c0.3-0.3,0.7-0.5,1.1-0.5s0.8,0.2,1.1,0.5c0.3,0.3,0.5,0.7,0.5,1.1
		c0,0.5-0.2,0.9-0.5,1.2c-0.3,0.3-0.7,0.5-1.1,0.5s-0.8-0.2-1.1-0.5C273.8,28.5,273.7,28.2,273.7,27.7z M274.1,34.6h2.2v18.6h-2.2
		V34.6z"/>
	<path class="st0" d="M299.2,51.4c-0.9,0.7-1.8,1.2-2.9,1.6c-1.1,0.4-2.2,0.6-3.4,0.6c-1.9,0-3.6-0.4-5.1-1.3
		c-1.5-0.8-2.7-2-3.5-3.5c-0.9-1.5-1.3-3.1-1.3-5s0.4-3.5,1.3-5s2.1-2.6,3.5-3.5s3.1-1.3,4.8-1.3c1.3,0,2.5,0.2,3.6,0.6
		s2.1,0.9,2.9,1.6l-1.2,1.5c-0.7-0.5-1.4-1-2.3-1.3s-1.8-0.5-2.9-0.5c-1.4,0-2.7,0.3-3.8,1c-1.2,0.7-2.1,1.6-2.8,2.8
		c-0.7,1.2-1,2.5-1,4c0,1.4,0.3,2.7,1,3.9s1.6,2.1,2.8,2.8c1.2,0.7,2.5,1,4,1c1,0,1.8-0.2,2.7-0.5c0.8-0.3,1.6-0.7,2.2-1.2
		L299.2,51.4z"/>
</g>
<g>
	<path class="st2" d="M14.9,47.4c2.9-1.6,11.8-5.7,20.2-0.1c0.4,0.3,0.4,0.9,0,1.2c-2.9,1.6-11.9,5.7-20.2,0.1
		C14.4,48.3,14.5,47.7,14.9,47.4z"/>
	<path class="st2" d="M25,24.2c3.1,0.9,12.4,4.4,14.3,14.2c0.1,0.5-0.4,1-0.9,0.8C35.3,38.3,26,34.9,24.1,25
		C24,24.5,24.5,24.1,25,24.2z"/>
	<path class="st2" d="M48.6,14.9c1.6,2.9,5.7,11.8,0.1,20.2c-0.3,0.4-0.9,0.4-1.2,0c-1.6-2.9-5.7-11.9-0.1-20.2
		C47.7,14.4,48.3,14.5,48.6,14.9z"/>
	<path class="st2" d="M71.8,25c-0.9,3.1-4.4,12.4-14.2,14.3c-0.5,0.1-1-0.4-0.8-0.9C57.7,35.3,61.1,26,71,24.1
		C71.5,24,71.9,24.5,71.8,25z"/>
	<path class="st2" d="M81.1,48.6c-2.9,1.6-11.8,5.7-20.2,0.1c-0.4-0.3-0.4-0.9,0-1.2c2.9-1.6,11.9-5.7,20.2-0.1
		C81.6,47.7,81.5,48.3,81.1,48.6z"/>
</g>
<rect x="67" y="87" class="st3" width="44" height="42.8"/>
<rect x="110" y="87" class="st1" width="44" height="42.8"/>
<rect x="153" y="87" class="st4" width="44" height="42.8"/>
<rect x="196" y="87" class="st0" width="44" height="42.8"/>
<rect x="239" y="87" class="st5" width="44" height="42.8"/>
</svg>
