<?xml version="1.0" encoding="utf-8"?>
<!-- Generator: Adobe Illustrator 22.0.1, SVG Export Plug-In . SVG Version: 6.00 Build 0)  -->
<svg version="1.1" id="Layer_1" xmlns="http://www.w3.org/2000/svg" xmlns:xlink="http://www.w3.org/1999/xlink" x="0px" y="0px"
	 viewBox="0 0 45 45" style="enable-background:new 0 0 45 45;" xml:space="preserve">
<style type="text/css">
	.st0{fill:#A4A1C2;}
	.st1{fill:#FFFFFF;}
	.st2{fill-rule:evenodd;clip-rule:evenodd;fill:#FFFFFF;}
	.st3{fill:#8AAA79;}
</style>
<g>
	<g>
		<path class="st0" d="M40.2,22.5c0-9.8-7.9-17.7-17.7-17.7c-9.8,0-17.7,7.9-17.7,17.7c0,8.8,6.5,16.1,14.9,17.5V27.6h-4.5v-5.1h4.5
			v-3.9c0-4.4,2.6-6.9,6.7-6.9c1.9,0,4,0.3,4,0.3v4.4h-2.2c-2.2,0-2.9,1.4-2.9,2.8v3.3h4.9l-0.8,5.1h-4.1V40
			C33.7,38.6,40.2,31.3,40.2,22.5z"/>
		<path class="st1" d="M29.4,27.6l0.8-5.1h-4.9v-3.3c0-1.4,0.7-2.8,2.9-2.8h2.2v-4.4c0,0-2-0.3-4-0.3c-4,0-6.7,2.4-6.7,6.9v3.9h-4.5
			v5.1h4.5V40c0.9,0.1,1.8,0.2,2.8,0.2c0.9,0,1.9-0.1,2.8-0.2V27.6H29.4z"/>
	</g>
</g>
</svg>
