<?xml version="1.0" encoding="utf-8"?>
<!-- Generator: Adobe Illustrator 22.0.1, SVG Export Plug-In . SVG Version: 6.00 Build 0)  -->
<svg version="1.1" id="Layer_1" xmlns="http://www.w3.org/2000/svg" xmlns:xlink="http://www.w3.org/1999/xlink" x="0px" y="0px"
	 viewBox="0 0 45 45" style="enable-background:new 0 0 45 45;" xml:space="preserve">
<style type="text/css">
	.st0{fill:#A4A1C2;}
	.st1{fill:#FFFFFF;}
	.st2{fill-rule:evenodd;clip-rule:evenodd;fill:#FFFFFF;}
	.st3{fill:#8AAA79;}
</style>
<g>
	<ellipse transform="matrix(0.6543 -0.7562 0.7562 0.6543 -9.2372 24.7916)" class="st0" cx="22.5" cy="22.5" rx="17.7" ry="17.7"/>
	<path class="st1" d="M12.9,32.5l1.5-5.5c-0.8-1.5-1.3-3.2-1.3-4.9c0-5.6,4.6-10.2,10.2-10.2c5.6,0,10.2,4.6,10.2,10.2
		c0,5.6-4.6,10.2-10.2,10.2c-1.7,0-3.3-0.4-4.8-1.2L12.9,32.5z M18.7,29l0.3,0.2c1.3,0.8,2.7,1.2,4.2,1.2c4.5,0,8.2-3.7,8.2-8.2
		c0-4.5-3.7-8.2-8.2-8.2c-4.5,0-8.2,3.7-8.2,8.2c0,1.5,0.4,3,1.2,4.3l0.2,0.4l-0.8,3.1L18.7,29z"/>
	<path class="st2" d="M27.1,23.5c-0.4-0.3-1-0.5-1.5-0.3c-0.4,0.2-0.6,0.7-0.9,1c-0.1,0.2-0.3,0.2-0.5,0.1c-1.4-0.6-2.5-1.5-3.3-2.8
		c-0.1-0.2-0.1-0.4,0.1-0.6c0.2-0.3,0.5-0.6,0.6-1c0.1-0.4-0.1-0.8-0.3-1.1c-0.2-0.4-0.4-1-0.8-1.3c-0.4-0.2-0.9-0.1-1.3,0.2
		c-0.6,0.5-0.9,1.3-0.9,2c0,0.2,0,0.4,0.1,0.6c0.1,0.5,0.4,1,0.6,1.4c0.2,0.3,0.4,0.7,0.6,1c0.8,1,1.7,1.9,2.8,2.6
		c0.5,0.3,1.1,0.6,1.7,0.8c0.7,0.2,1.3,0.5,2,0.3c0.8-0.1,1.5-0.6,1.8-1.4c0.1-0.2,0.1-0.5,0.1-0.7C28.1,24,27.5,23.7,27.1,23.5z"/>
</g>
</svg>
